<svg xmlns="http://www.w3.org/2000/svg" width="13.998" height="18.997" viewBox="0 0 13.998 18.997">
    <g data-name="ðŸ”-Product-Icons">
        <path data-name="ðŸŽ¨-Color" d="M6.191 21.854A.75.75 0 0 1 5 21.245v-15A3.25 3.25 0 0 1 8.253 3h7.5A3.25 3.25 0 0 1 19 6.249v15a.75.75 0 0 1-1.188.609L12 17.673zM17.5 6.249a1.75 1.75 0 0 0-1.75-1.75h-7.5a1.75 1.75 0 0 0-1.75 1.75v13.533l5.061-3.641a.75.75 0 0 1 .876 0l5.063 3.641z" style="fill:#a8a8a8" transform="translate(-5.003 -2.999)"/>
    </g>
</svg>
