<svg xmlns="http://www.w3.org/2000/svg" width="20" height="14" viewBox="0 0 20 14">
    <g data-name="ðŸ”-Product-Icons">
        <path data-name="ðŸŽ¨-Color" d="M20.25 5A1.75 1.75 0 0 1 22 6.75v2.26a.75.75 0 0 1-.688.748 2.25 2.25 0 0 0 0 4.485.75.75 0 0 1 .688.747v2.26A1.75 1.75 0 0 1 20.25 19H3.75A1.75 1.75 0 0 1 2 17.25v-2.26a.75.75 0 0 1 .688-.747 2.25 2.25 0 0 0 0-4.485A.75.75 0 0 1 2 9.01V6.75A1.75 1.75 0 0 1 3.75 5zm.25 3.385V6.75a.25.25 0 0 0-.25-.25H3.75a.25.25 0 0 0-.25.25v1.635a3.751 3.751 0 0 1 0 7.23v1.635a.25.25 0 0 0 .25.25h16.5a.25.25 0 0 0 .25-.25v-1.635a3.752 3.752 0 0 1-.189-7.173z" style="fill:#161616" transform="translate(-2 -5)"/>
    </g>
</svg>
